<svg xmlns="http://www.w3.org/2000/svg" viewBox="0 0 64 64" fill="none">
  <defs>
    <linearGradient id="g" x1="12" y1="10" x2="52" y2="56" gradientUnits="userSpaceOnUse">
      <stop stop-color="#FF9A62"/>
      <stop offset="1" stop-color="#FF5A36"/>
    </linearGradient>
  </defs>
  <path d="M32 10c-10.4 0-18 7.7-18 18.2 0 6.2 2.7 10.2 4.5 12.7-2.4 1-6.8 3.9-6.8 8.4 0 2.6 1.8 4.8 4.6 4.8 3.6 0 5.8-3.8 6.8-7.5.8 5.3 3 9.4 8.9 9.4 5.8 0 8-4.1 8.8-9.2 1 3.6 3.2 7.3 6.8 7.3 2.9 0 4.8-2.2 4.8-4.9 0-4.5-4.5-7.3-6.9-8.3 1.8-2.5 4.5-6.5 4.5-12.7C50 17.7 42.4 10 32 10Z" fill="url(#g)"/>
  <path d="M23.6 44.4c-2.3 3.8-3.3 8.6-6.8 8.6-1.5 0-2.4-1.3-2.4-2.9 0-3.4 4.2-5.6 7.2-6.1" stroke="#FFB08B" stroke-width="2.3" stroke-linecap="round"/>
  <path d="M40.4 44.4c2.3 3.8 3.3 8.6 6.8 8.6 1.5 0 2.4-1.3 2.4-2.9 0-3.4-4.2-5.6-7.2-6.1" stroke="#FFB08B" stroke-width="2.3" stroke-linecap="round"/>
  <path d="M22 30.2c0 6.3 4.8 11.3 10 11.3s10-5 10-11.3" fill="#1A1212"/>
  <path d="M24 24.5c.7-3.3 2.9-5.4 6-5.4s5.3 2.1 6 5.4" stroke="#1A1212" stroke-width="2.6" stroke-linecap="round"/>
  <circle cx="41.5" cy="17.5" r="3.4" fill="#FFD8C6" fill-opacity=".82"/>
  <circle cx="35.4" cy="13.2" r="2.1" fill="#FFE4D8" fill-opacity=".72"/>
</svg>
